<svg viewBox="0 0 48 48" fill="none" xmlns="http://www.w3.org/2000/svg">
  <defs>
    <linearGradient id="iconGradient" x1="0%" y1="0%" x2="100%" y2="100%">
      <stop offset="0%" style="stop-color:#16a34a;stop-opacity:1" />
      <stop offset="100%" style="stop-color:#22c55e;stop-opacity:1" />
    </linearGradient>
  </defs>
  <!-- Background -->
  <rect width="48" height="48" fill="#1a1f2e" rx="8"/>
  
  <!-- Speech bubble dark -->
  <path d="M8 14 C8 11, 11 9, 15 9 L28 9 C32 9, 35 12, 35 16 C35 20, 32 23, 28 23 L15 23 L10 27 L12 23 C9 22.5, 8 19.5, 8 14Z" fill="#1a1f2e" stroke="url(#iconGradient)" stroke-width="1.5"/>
  
  <!-- Speech bubble green accent -->
  <path d="M12 20 C12 17, 15 15, 19 15 L30 15 C34 15, 37 18, 37 22 C37 26, 34 29, 30 29 L19 29 L14 33 L16 29 C13 28.5, 12 25.5, 12 20Z" fill="url(#iconGradient)"/>
  
  <!-- Typing dots -->
  <circle cx="18" cy="22" r="1.5" fill="white" opacity="0.8"/>
  <circle cx="23" cy="22" r="1.5" fill="white" opacity="0.8"/>
  <circle cx="28" cy="22" r="1.5" fill="white" opacity="0.8"/>
</svg>